<svg width="49" height="49" viewBox="0 0 49 49" fill="none" xmlns="http://www.w3.org/2000/svg">
<rect x="0.253906" y="0.891602" width="48" height="48" rx="24" fill="#333333"/>
<g clip-path="url(#clip0_42_77)">
<mask id="mask0_42_77" style="mask-type:luminance" maskUnits="userSpaceOnUse" x="14" y="14" width="21" height="21">
<path d="M34.2539 14.8916H14.2539V34.8916H34.2539V14.8916Z" fill="white"/>
</mask>
<g mask="url(#mask0_42_77)">
<path d="M32.552 25.2186C33.1166 24.3072 33.4148 23.2611 33.4148 22.1816C33.4148 19.219 31.1724 16.7707 28.2958 16.4438L28.8012 16.0189C28.8631 15.9653 28.9015 15.8896 28.908 15.8079C28.9145 15.7263 28.8885 15.6454 28.8358 15.5828C28.7832 15.5201 28.708 15.4807 28.6264 15.473C28.5449 15.4654 28.4637 15.4901 28.4003 15.5419L27.267 16.4945C27.2038 16.5477 27.1643 16.6238 27.1571 16.7062C27.15 16.7885 27.1758 16.8703 27.229 16.9335L28.1816 18.0667C28.2108 18.1016 28.2474 18.1296 28.2886 18.1488C28.3298 18.168 28.3748 18.1779 28.4203 18.1778C28.4796 18.1777 28.5376 18.1608 28.5876 18.1288C28.6376 18.0969 28.6775 18.0514 28.7025 17.9977C28.7275 17.9439 28.7367 17.8841 28.7289 17.8253C28.7211 17.7665 28.6968 17.7112 28.6586 17.6657L28.1445 17.0541C30.7493 17.3087 32.7917 19.511 32.7917 22.1815C32.7917 23.0704 32.5656 23.9338 32.1349 24.7006C31.0773 23.5304 29.5483 22.7939 27.8505 22.7939C27.8439 22.7939 27.8373 22.7941 27.8306 22.7941L27.8275 21.9107C27.8268 18.2988 24.8881 15.3604 21.2761 15.3604C17.6636 15.3604 14.7246 18.2993 14.7246 21.9118C14.7246 22.9524 14.9689 23.937 15.4025 24.8117C15.4011 24.815 15.3996 24.818 15.3983 24.8214C15.0125 25.8573 14.9409 26.9765 15.1914 28.0577C15.7943 30.661 18.1201 32.4255 20.685 32.4255C20.891 32.4255 21.0986 32.4139 21.307 32.3906L20.9314 32.8906C20.8967 32.9369 20.8755 32.9919 20.8702 33.0495C20.865 33.1072 20.8759 33.1651 20.9017 33.2168C20.9276 33.2686 20.9673 33.3122 21.0165 33.3426C21.0657 33.3731 21.1224 33.3892 21.1803 33.3892C21.2749 33.3892 21.3684 33.3463 21.4297 33.2648L22.2965 32.1105C22.3211 32.0778 22.339 32.0406 22.3492 32.001C22.3594 31.9613 22.3617 31.9201 22.3559 31.8796C22.3501 31.8391 22.3365 31.8001 22.3156 31.7649C22.2948 31.7297 22.2673 31.6989 22.2345 31.6743L21.0803 30.8074C21.0476 30.7828 21.0103 30.765 20.9707 30.7548C20.9311 30.7446 20.8898 30.7423 20.8493 30.7481C20.8088 30.7538 20.7698 30.7675 20.7346 30.7884C20.6994 30.8092 20.6686 30.8367 20.6441 30.8695C20.6195 30.9022 20.6016 30.9394 20.5914 30.979C20.5812 31.0187 20.579 31.0599 20.5847 31.1004C20.5905 31.1409 20.6042 31.1799 20.625 31.2151C20.6458 31.2503 20.6734 31.2811 20.7061 31.3057L21.3141 31.7623C18.7944 32.0826 16.3837 30.444 15.7984 27.9172C15.6157 27.128 15.626 26.3165 15.8249 25.5417C17.0006 27.3017 19.0048 28.4632 21.2749 28.4632L22.0764 28.4662C22.0758 28.5005 22.0751 28.5348 22.0751 28.5693C22.0751 31.7539 24.666 34.3447 27.8505 34.3447C31.0351 34.3447 33.626 31.7539 33.626 28.5693C33.626 27.3211 33.2278 26.1642 32.552 25.2186ZM21.0919 23.2866C20.4535 23.8567 19.609 24.4134 18.4976 24.8408C18.462 24.8546 18.4241 24.8617 18.3859 24.8617C18.3229 24.8617 18.2614 24.8426 18.2094 24.8069C18.1575 24.7712 18.1176 24.7207 18.095 24.6619C18.0803 24.6237 18.0733 24.583 18.0743 24.5421C18.0754 24.5012 18.0844 24.4609 18.1011 24.4235C18.1177 24.3861 18.1415 24.3524 18.1712 24.3242C18.2008 24.296 18.2358 24.274 18.2739 24.2592C19.2745 23.8744 20.0443 23.3795 20.6359 22.8587C20.0743 22.292 19.7339 21.7899 19.5863 21.55C19.543 21.4796 19.5294 21.3949 19.5486 21.3145C19.5677 21.2342 19.618 21.1647 19.6884 21.1214C19.7588 21.0781 19.8435 21.0645 19.9239 21.0836C20.0042 21.1028 20.0737 21.1531 20.117 21.2234C20.2527 21.4439 20.5654 21.905 21.0829 22.4264C22.0268 21.4237 22.3805 20.4112 22.4988 19.9623H18.1157C18.0748 19.9623 18.0343 19.9543 17.9965 19.9386C17.9587 19.9229 17.9243 19.9 17.8954 19.8711C17.8665 19.8421 17.8435 19.8078 17.8278 19.77C17.8122 19.7322 17.8041 19.6917 17.8041 19.6507C17.8041 19.6098 17.8122 19.5693 17.8278 19.5315C17.8435 19.4937 17.8665 19.4594 17.8954 19.4304C17.9243 19.4015 17.9587 19.3785 17.9965 19.3629C18.0343 19.3472 18.0748 19.3392 18.1157 19.3392H20.8132V18.4934C20.8132 18.3214 20.9526 18.1819 21.1247 18.1819C21.2968 18.1819 21.4363 18.3213 21.4363 18.4934V19.3392H24.1337C24.1746 19.3392 24.2151 19.3472 24.253 19.3629C24.2908 19.3785 24.3251 19.4015 24.354 19.4304C24.383 19.4594 24.4059 19.4937 24.4215 19.5315C24.4373 19.5693 24.4453 19.6098 24.4453 19.6507C24.4453 19.6917 24.4373 19.7322 24.4215 19.77C24.4059 19.8078 24.383 19.8421 24.354 19.8711C24.3251 19.9 24.2908 19.9229 24.253 19.9386C24.2151 19.9543 24.1746 19.9623 24.1337 19.9623H23.1402C23.0759 20.2559 22.886 20.9418 22.393 21.7429C22.1855 22.0802 21.907 22.4621 21.5397 22.8515C22.1301 23.3593 22.9078 23.8782 23.8983 24.2592C23.9238 24.269 23.9469 24.282 23.968 24.2972C23.804 24.4465 23.6485 24.6051 23.5025 24.7722C22.4965 24.3607 21.7004 23.8171 21.0919 23.2866ZM27.8505 33.7216C25.0095 33.7216 22.6982 31.4103 22.6982 28.5693C22.6982 25.7283 25.0095 23.417 27.8505 23.417C30.6915 23.417 33.0028 25.7283 33.0028 28.5693C33.0028 31.4103 30.6915 33.7216 27.8505 33.7216Z" fill="white"/>
<path d="M28.1954 25.578C28.1721 25.5206 28.1321 25.4714 28.0807 25.4369C28.0293 25.4022 27.9687 25.3838 27.9068 25.3838C27.8448 25.3838 27.7842 25.4022 27.7328 25.4369C27.6814 25.4714 27.6415 25.5206 27.6181 25.578L26.1815 29.1143L26.1809 29.1159L25.4878 30.822C25.4724 30.8599 25.4646 30.9005 25.4649 30.9414C25.4651 30.9824 25.4735 31.0228 25.4894 31.0605C25.5053 31.0982 25.5285 31.1324 25.5576 31.1611C25.5867 31.1899 25.6212 31.2126 25.6591 31.228C25.6971 31.2434 25.7376 31.2511 25.7786 31.2509C25.8194 31.2506 25.8599 31.2423 25.8976 31.2264C25.9353 31.2104 25.9695 31.1873 25.9982 31.1581C26.027 31.129 26.0497 31.0945 26.0651 31.0566L26.6781 29.5477H29.1356L29.7485 31.0566C29.7719 31.1141 29.8118 31.1632 29.8632 31.1979C29.9146 31.2325 29.9753 31.251 30.0373 31.251C30.0884 31.2509 30.1386 31.2384 30.1836 31.2144C30.2287 31.1904 30.2672 31.1556 30.2957 31.1133C30.3242 31.0709 30.3419 31.0222 30.3471 30.9714C30.3524 30.9206 30.345 30.8694 30.3258 30.822L28.1954 25.578ZM26.9311 28.9246L27.9068 26.5231L28.8824 28.9246H26.9311Z" fill="#333333"/>
</g>
</g>
<defs>
<clipPath id="clip0_42_77">
<rect width="20" height="20" fill="white" transform="translate(14.2539 14.8916)"/>
</clipPath>
</defs>
</svg>
