<svg width="49" height="49" viewBox="0 0 49 49" fill="none" xmlns="http://www.w3.org/2000/svg">
<rect x="0.253906" y="0.891602" width="48" height="48" rx="24" fill="#333333"/>
<g clip-path="url(#clip0_42_90)">
<mask id="mask0_42_90" style="mask-type:luminance" maskUnits="userSpaceOnUse" x="14" y="14" width="21" height="21">
<path d="M34.2539 14.8916H14.2539V34.8916H34.2539V14.8916Z" fill="white"/>
</mask>
<g mask="url(#mask0_42_90)">
<path d="M29.0866 33.2667C28.8366 33.2667 28.545 33.1417 28.3782 32.8917C28.1282 32.5167 28.2532 32.0167 28.6282 31.7667C31.795 29.7667 33.1699 25.85 32.0032 22.3084C30.8366 18.7667 27.3782 16.4334 23.67 16.725C23.2116 16.7667 22.8366 16.4334 22.795 15.975C22.7532 15.5167 23.0866 15.1417 23.545 15.1C28.045 14.7667 32.17 17.5167 33.545 21.8084C34.9616 26.0584 33.295 30.725 29.5032 33.1417C29.3782 33.225 29.2532 33.2667 29.0866 33.2667ZM24.2532 34.6834C20.0449 34.6834 16.2949 32.0167 14.9616 27.975C13.5449 23.725 15.1699 19.0584 18.9616 16.6417C19.3366 16.3917 19.8366 16.5167 20.0866 16.8917C20.3366 17.2667 20.2116 17.7667 19.8366 18.0167C16.7116 20.0167 15.2949 23.8917 16.5033 27.475C17.6699 31.0167 21.1283 33.3084 24.8366 33.0584C25.295 33.0167 25.67 33.35 25.7116 33.8084C25.7532 34.2667 25.42 34.6417 24.9616 34.6834C24.7116 34.6834 24.4616 34.6834 24.2532 34.6834Z" fill="white"/>
<path d="M20.1698 20.9334C19.7115 20.9334 19.3365 20.5584 19.3365 20.1001L19.3782 16.7668L16.0448 16.7251C15.5865 16.7251 15.2115 16.3501 15.2532 15.8918C15.2532 15.4334 15.6282 15.1001 16.0865 15.1001L20.2532 15.1418C20.7115 15.1418 21.0865 15.5168 21.0448 15.9751L21.0032 20.1418C20.9615 20.6001 20.5865 20.9334 20.1698 20.9334ZM32.4199 34.4334L28.2531 34.3918C27.7949 34.3918 27.4199 34.0168 27.4615 33.5584L27.5031 29.3918C27.5031 28.9334 27.8781 28.5584 28.3365 28.6001C28.7949 28.6001 29.1699 28.9751 29.1281 29.4334L29.0865 32.7668L32.4199 32.8084C32.8781 32.8084 33.2531 33.1834 33.2115 33.6418C33.2531 34.0584 32.8781 34.4334 32.4199 34.4334Z" fill="white"/>
</g>
</g>
<defs>
<clipPath id="clip0_42_90">
<rect width="20" height="20" fill="white" transform="translate(14.2539 14.8916)"/>
</clipPath>
</defs>
</svg>
