<svg width="113" height="43" viewBox="0 0 113 43" fill="none" xmlns="http://www.w3.org/2000/svg">
<ellipse cx="21.2293" cy="21.384" rx="21.2293" ry="21.384" fill="black"/>
<path d="M25.279 17.4585C23.6535 17.4585 22.3055 18.8065 22.3055 20.432C22.3055 22.0575 23.6139 23.4055 25.279 23.4055C26.9046 23.4055 28.2526 22.0575 28.2526 20.432C28.2526 18.8065 26.9442 17.4585 25.279 17.4585ZM25.279 21.8196C24.5258 21.8196 23.8914 21.1853 23.8914 20.432C23.8914 19.6787 24.4861 19.0444 25.279 19.0444C26.0323 19.0444 26.6667 19.6787 26.6667 20.432C26.6667 21.2249 26.0323 21.8196 25.279 21.8196ZM16.1603 17.4585C14.5348 17.4585 13.1868 18.8065 13.1868 20.432C13.1868 22.0575 14.4951 23.4055 16.1603 23.4055C17.7858 23.4055 19.1338 22.0575 19.1338 20.432C19.1338 18.8065 17.7858 17.4585 16.1603 17.4585ZM16.1603 21.8196C15.407 21.8196 14.7726 21.1853 14.7726 20.432C14.7726 19.6787 15.3673 19.0444 16.1603 19.0444C16.9136 19.0444 17.5479 19.6787 17.5479 20.432C17.5083 21.2249 16.9136 21.8196 16.1603 21.8196Z" fill="white"/>
<path d="M25.834 13.0576H24.9222C24.8032 11.8286 23.7328 10.8374 22.4641 10.8374H18.9355C17.6668 10.8374 16.5963 11.7889 16.4774 13.0576H15.3673C13.3453 13.0576 11.4819 13.8902 10.1339 15.2382C8.82554 16.5862 7.99296 18.4496 8.03261 20.5112C8.07225 24.5949 11.5215 27.8062 15.6052 27.8062H16.517C16.7549 27.8062 16.9135 28.0045 16.9135 28.2424L16.7946 32.5242C16.7946 32.8414 17.1117 33.0396 17.3496 32.881L24.4067 27.8459C24.4464 27.8062 24.5257 27.8062 24.5653 27.8062H25.9926C28.0146 27.8062 29.878 26.9737 31.226 25.6257C32.574 24.2777 33.4066 22.4143 33.4066 20.3526C33.3669 16.3087 29.9177 13.0576 25.834 13.0576ZM25.8737 25.3085H15.5655C12.8695 25.3085 10.6889 23.1279 10.6889 20.4319C10.6889 17.7359 12.8695 15.5554 15.5655 15.5554H25.8737C28.5697 15.5554 30.7502 17.7359 30.7502 20.4319C30.7502 23.1279 28.5697 25.3085 25.8737 25.3085Z" fill="white"/>
<path d="M75.0321 17.177H72.6974V3.5944L68.3394 17.177H64.7284L60.3704 3.5944V17.177H58.0253V2.29736H62.3834L66.5339 15.3715L70.6741 2.29736H75.0321V17.177ZM77.9271 7.1016H80.158V17.177H77.9271V7.1016ZM77.8233 5.37913V2.94069H80.2618V5.37913H77.8233ZM82.887 7.1016H85.1179V8.57503C85.3185 8.03546 85.6263 7.62041 86.0414 7.32987C86.4634 7.03934 86.9718 6.89407 87.5667 6.89407C88.3968 6.89407 89.0886 7.17077 89.642 7.72418C90.1954 8.25683 90.4721 8.92783 90.4721 9.73718C90.4721 10.2076 90.4236 10.633 90.3268 11.0135H88.1166C88.172 10.7644 88.1997 10.4808 88.1997 10.1626C88.1997 9.76831 88.0578 9.44319 87.7742 9.18724C87.4975 8.93129 87.1447 8.80331 86.7158 8.80331C86.2316 8.80331 85.8442 8.9555 85.5537 9.25987C85.2632 9.56424 85.1179 9.97238 85.1179 10.4843V17.177H82.887V7.1016ZM92.153 14.3131C92.153 13.2548 92.5024 12.4523 93.201 11.9058C93.9066 11.3524 94.8405 11.0757 96.0026 11.0757C96.6183 11.0757 97.2132 11.1484 97.7874 11.2936L98.8458 11.5427V10.8059C98.8458 10.1488 98.6279 9.63342 98.1921 9.25987C97.7562 8.88632 97.1959 8.69955 96.5111 8.69955C95.8539 8.69955 95.3109 8.87941 94.882 9.23912C94.46 9.59191 94.1868 10.0761 94.0623 10.6918L92.0493 10.1626C92.2776 9.15265 92.7756 8.35713 93.5435 7.77606C94.3113 7.18807 95.3005 6.89407 96.5111 6.89407C97.943 6.89407 99.0429 7.24341 99.8108 7.94208C100.586 8.64075 100.973 9.62996 100.973 10.9097V17.177H98.8458V15.4753C98.6175 16.0633 98.2128 16.5302 97.6317 16.8761C97.0576 17.215 96.3382 17.3845 95.4735 17.3845C94.5949 17.3845 93.8202 17.1044 93.1492 16.544C92.4851 15.9768 92.153 15.2332 92.153 14.3131ZM98.8458 13.3481V13.2444L98.0364 13.0369C97.3101 12.8501 96.7532 12.7567 96.3658 12.7567C95.7847 12.7567 95.3247 12.8708 94.9858 13.0991C94.6537 13.3205 94.4877 13.6525 94.4877 14.0952C94.4877 14.5103 94.6468 14.8458 94.965 15.1017C95.2832 15.3508 95.7502 15.4753 96.3658 15.4753C97.106 15.4753 97.7044 15.2851 98.1609 14.9046C98.6175 14.5241 98.8458 14.0053 98.8458 13.3481ZM103.702 7.1016H105.933V17.177H103.702V7.1016ZM103.598 5.37913V2.94069H106.037V5.37913H103.598ZM58.0253 36.177V21.2974H65.0397C66.4025 21.2974 67.5404 21.6778 68.4535 22.4388C69.3666 23.1928 69.8232 24.1232 69.8232 25.23C69.8232 25.9632 69.6226 26.617 69.2214 27.1911C68.8201 27.7583 68.2425 28.2045 67.4885 28.5297C68.3809 28.7441 69.0796 29.1695 69.5845 29.8059C70.0964 30.4354 70.3524 31.2137 70.3524 32.1406C70.3524 33.2889 69.882 34.2505 68.9412 35.0252C68.0004 35.7931 66.8417 36.177 65.4651 36.177H58.0253ZM60.3704 27.4609H64.9359C65.773 27.4609 66.4059 27.288 66.8348 26.9421C67.2706 26.5962 67.4885 26.0981 67.4885 25.4479C67.4885 24.853 67.2499 24.386 66.7726 24.0471C66.2952 23.7012 65.683 23.5283 64.9359 23.5283H60.3704V27.4609ZM60.3704 33.9461H65.3614C66.1154 33.9461 66.7276 33.7524 67.198 33.365C67.6753 32.9707 67.914 32.4554 67.914 31.8189C67.914 31.1964 67.6753 30.6706 67.198 30.2417C66.7207 29.8059 66.1085 29.588 65.3614 29.588H60.3704V33.9461ZM73.5587 34.8903C72.5902 33.8942 72.106 32.6456 72.106 31.1445C72.106 29.6434 72.5902 28.3948 73.5587 27.3986C74.534 26.3956 75.7757 25.8941 77.2838 25.8941C78.7918 25.8941 80.0335 26.3956 81.0089 27.3986C81.9842 28.3948 82.4719 29.6434 82.4719 31.1445C82.4719 32.6456 81.9842 33.8942 81.0089 34.8903C80.0335 35.8865 78.7918 36.3845 77.2838 36.3845C75.7757 36.3845 74.534 35.8865 73.5587 34.8903ZM79.4005 33.4688C79.9609 32.86 80.241 32.0853 80.241 31.1445C80.241 30.2037 79.9609 29.4289 79.4005 28.8202C78.8402 28.2114 78.1346 27.9071 77.2838 27.9071C76.4329 27.9071 75.7273 28.2114 75.167 28.8202C74.6136 29.4289 74.3369 30.2037 74.3369 31.1445C74.3369 32.0853 74.6136 32.86 75.167 33.4688C75.7273 34.0706 76.4329 34.3715 77.2838 34.3715C78.1346 34.3715 78.8402 34.0706 79.4005 33.4688ZM85.6782 32.9915V28.0212H83.6548V26.1016H85.6782V22.8953H87.9091V26.1016H91.7276V28.0212H87.9091V33.0952C87.9091 33.538 88.0267 33.8804 88.2619 34.1225C88.504 34.3577 88.8084 34.4753 89.175 34.4753C89.6039 34.4753 89.9325 34.3369 90.1608 34.0602C90.3891 33.7835 90.524 33.3546 90.5655 32.7736L92.6822 33.199C92.5923 34.209 92.2464 34.9941 91.6446 35.5544C91.0428 36.1078 90.2576 36.3845 89.2892 36.3845C88.1201 36.3845 87.2243 36.0871 86.6017 35.4922C85.986 34.8973 85.6782 34.0637 85.6782 32.9915Z" fill="black"/>
</svg>
