<svg width="49" height="49" viewBox="0 0 49 49" fill="none" xmlns="http://www.w3.org/2000/svg">
<rect x="0.253906" y="0.891602" width="48" height="48" rx="24" fill="#333333"/>
<g clip-path="url(#clip0_42_69)">
<path d="M29.9952 22.2281C29.9658 22.1676 29.9201 22.1165 29.863 22.0808C29.8061 22.0451 29.7402 22.0262 29.6729 22.0263H25.9409L28.9221 15.7325C28.948 15.678 28.9597 15.6177 28.956 15.5574C28.9523 15.4971 28.9334 15.4387 28.9011 15.3877C28.8688 15.3366 28.8242 15.2946 28.7712 15.2655C28.7182 15.2364 28.6588 15.2211 28.5984 15.2212H22.8678C22.7987 15.2212 22.7311 15.2412 22.6731 15.2787C22.6151 15.3162 22.5692 15.3698 22.541 15.4328L17.8849 25.8195C17.8604 25.874 17.85 25.9338 17.8546 25.9934C17.8591 26.053 17.8786 26.1105 17.9111 26.1607C17.9435 26.2109 17.9881 26.2521 18.0406 26.2807C18.0931 26.3092 18.152 26.3242 18.2117 26.3242H21.7071L20.0107 34.1275C19.9934 34.2067 20.0035 34.2893 20.0393 34.362C20.0751 34.4348 20.1345 34.4932 20.2078 34.5278C20.2811 34.5624 20.3639 34.5712 20.4428 34.5525C20.5217 34.534 20.5919 34.4892 20.6421 34.4255L29.9542 22.6061C29.9958 22.5533 30.0218 22.4898 30.029 22.423C30.0362 22.3561 30.0246 22.2886 29.9952 22.2281Z" fill="white"/>
</g>
<defs>
<clipPath id="clip0_42_69">
<rect width="12.8" height="20" fill="white" transform="translate(17.8535 14.8916)"/>
</clipPath>
</defs>
</svg>
